# xmcd
#
# Track frame offsets:
#	150
#	33198
#	57506
#	74677
#	105194
#	127890
#	151953
#	176543
#	199740
#
# Disc length: 3091
#
# Revision: 2
# Processed by: cddbd v1.5.1PL0 Copyright (c) Steve Scherf et al.
# Submitted via: CDex 1.51
# Normalized: r0:TDELIM( - ),TSWAP
#
DISCID=720c1109
DTITLE=Dan Gibson - Angelsong: Choral Classics By The Sea
DYEAR=2003
DGENRE=New Age
TTITLE0=Faure - Pavane, Op. 50
TTITLE1=Satie - Gymnopedie No. 3
TTITLE2=Saint-Saens - The Swan
TTITLE3=Beethoven - Sonata in C minor, Op.13 Pathetique, 2nd Movt
TTITLE4=Herberman - Poppies
TTITLE5=J. S. Bach - Air For The G String
TTITLE6=Dvorak - Symphony No. 9 in E minor, New World 2nd Movt
TTITLE7=Chopin - Etude Op. 10, No. 3
TTITLE8=Rachmaninov - Piano Concerto No. 2 in C minor, Op. 18, 2nd Movt
EXTD=YEAR: 2003
EXTT0=
EXTT1=
EXTT2=
EXTT3=
EXTT4=
EXTT5=
EXTT6=
EXTT7=
EXTT8=
PLAYORDER=
